<?xml version="1.0" encoding="utf-8"?>
<!-- Generator: Adobe Illustrator 22.0.0, SVG Export Plug-In . SVG Version: 6.00 Build 0)  -->
<svg version="1.1" id="Слой_1" xmlns="http://www.w3.org/2000/svg" xmlns:xlink="http://www.w3.org/1999/xlink" x="0px" y="0px"
	 viewBox="0 0 147.3 102.9" style="enable-background:new 0 0 147.3 102.9;" xml:space="preserve">
<style type="text/css">
	.st0{fill:#FFBB00;}
	.st1{fill:#D1982E;}
	.st2{fill:#005E0D;}
	.st3{fill:#69A135;}
	.st4{fill:#FED678;}
	.st5{fill:#004D0A;}
	.st6{fill:#FEF39D;}
</style>
<g id="Layer_x0020_1">
	<g id="_1224954848">
		<path class="st0" d="M93.8,14.1c17.7,0,32,12.7,32,28.4c0,3.6-0.8,7.1-2.2,10.3l-4,0.5c-2,1-4.5,0.5-6.6,0.8
			c-6.5,0.9-13.2-0.1-19.6-0.9l-30.1-8.4l-0.8-0.4h-0.7c-0.1-0.6-0.1-1.2-0.1-1.8C61.7,26.8,76,14.1,93.8,14.1z"/>
		<path class="st1" d="M11.9,52.4h0.6l0,0l0,0l0,0l0,0l0,0l0,0l0,0l0,0l0,0l0,0l0,0l0,0l0,0l0,0l0,0l0,0l0,0l0,0l0,0l0,0l0,0l0,0
			l0,0l0,0l0,0l0,0l0,0l0,0l0,0l0,0l0,0l0,0l0,0l0,0l0,0l0,0l0,0v-0.1l0,0l0,0l0,0l0,0l0,0l0,0l0,0l0,0l0,0l0,0l0,0l0,0l0,0l0,0l0,0
			l0,0l0,0l0,0l0,0l0,0l0,0l0,0l0,0C12.4,51.6,12.1,52,11.9,52.4z M14.4,52.4h4.4l33.1,0.1c-4-5.1-12.2-8.2-19.1-8.5
			c-4.1-0.4-9.2,0.5-13.5,2.4l0,0l0,0l0,0l0,0l0,0l0,0l0,0l0,0l0,0l0,0l0,0l0,0l0,0l0,0l0,0l0,0l0,0l0,0l0,0l0,0l0,0l0,0l0,0l0,0
			l0,0l0,0l0,0l0,0l0,0l0,0l0,0l0,0c0,1.1-0.2,3.3-0.4,5.9h-4.5V52.4z"/>
		<path class="st2" d="M19.2,46.5c3.3-1.6,7.7-2.8,13.5-2.6c7.7,0.4,15,3.7,19.1,8.5c12,9.4,27.5,6,35.6,6.7l-14.1-6.7h1.6
			C70.7,47.8,53.3,41.2,46.2,39c-11-3.6-20.8-0.3-27.1,4.8l0,0l0,0l0,0l0,0l0,0l0,0l0,0l0,0l0,0l0,0l0,0l0,0l0,0l0,0l0,0l0,0l0,0
			l0,0l0,0V44l0,0v0.1l0,0l0,0l0,0l0,0l0,0l0,0l0,0l0,0l0,0l0,0l0,0l0,0l0,0l0,0c0,0.6,0,1.1,0,1.8c0,0.1,0,0.2,0,0.3
			C19.2,46.4,19.2,46.5,19.2,46.5L19.2,46.5z"/>
		<path class="st3" d="M35.6,30.5c-4,1.9-7.3,3.5-10.8,6.2c-2.2,1.8-4.1,3.6-5.8,5.7c0.1,0.5,0.1,1,0.1,1.5c0,0.1,0,0.3,0,0.4
			c7-5.2,15.6-8.7,27.1-5.2c24,7.2,49.4,37,79.7,16c4.5-3.2,10.1-10.2,11.5-15.5c-5.2,3.5-8.3,6.3-15.1,5.7
			C100.8,43.5,74.3,28,49.6,28C46.3,27.9,41.5,28.2,35.6,30.5z"/>
		<g>
			<path class="st4" d="M50.5-2.6C48.6-3,32.4,18,47.1,24.7c0.7,0.3,1.3,0.5,1.9,0.7l0.1,9.2H51l0.8-9.1c2.1-0.3,3.8-1.5,5.3-2.9
				C65.2,14.8,52.4-2.3,50.5-2.6z"/>
			<path class="st5" d="M51.2,24l-7.4-10.3l7.4,8.7l0.4-4.5L45.3,7.1l6.3,9.4V11L47.7,0.8l3.9,8.1l0.2,0.3L54,16
				c0.2,0.5,0.1,0.4,0.1,1l-0.3,4.5c0,0.2,0,0.4,0,0.6L51.2,24z"/>
			<path class="st3" d="M50.5-2.6c-0.1,0-0.1,0-0.3,0v8.3v19.9v9h1.5v-9.1c2.1-0.3,3.8-1.5,5.3-2.9C65.2,14.8,52.4-2.3,50.5-2.6z"/>
		</g>
		<g>
			<path class="st1" d="M33.8,9.4c-1.3-0.3-12.3,14-2.3,18.6c0.4,0.2,0.9,0.3,1.3,0.5l0.1,6.2h1.3l0.5-6.2c1.4-0.2,2.6-1,3.6-2
				C43.8,21.2,35.1,9.7,33.8,9.4z"/>
			<path class="st5" d="M34.4,27.1l-4.8-6.8l4.8,5.7l0.3-3l-4.1-7.1l4.1,6.2v-3.6l-2.6-6.7l2.6,5.3l0.1,0.2l1.4,4.5
				c0.1,0.4,0.1,0.3,0.1,0.7l-0.2,2.9c0,0.1,0,0.3,0,0.4L34.4,27.1z"/>
			<path class="st3" d="M33.8,9.4h-0.1v5.7v13.5v6.1h1v-6.2c1.4-0.2,2.6-1,3.6-2C43.8,21.2,35.1,9.7,33.8,9.4z"/>
		</g>
		<path class="st2" d="M13.1,86.3c-1.6,0-2.9-1.4-3.9-4.1c-1-2.8-1.6-6.3-1.6-10.7c0-3.6,2.2-24,2.9-26.7c0.7-2.8,1.6-4.9,2.7-6.5
			c1.1-1.6,2.3-2.4,3.5-2.4c1.4,0,2.6,1.3,3.5,3.8c2.8,7.9,0.7,18.8-0.2,27.6c-0.6,5.5-0.7,9.9-2.1,13.5
			C16.7,84.5,15,86.3,13.1,86.3z M12.8,84.6c1,0,1.8-1.2,2.5-3.6s1.2-5.2,1.6-8.5c0.2-2.3,1.3-13,1.9-20.1v-0.1v-0.1V52v-0.1v-0.1
			l0,0v-0.1v-0.1v-0.1v-0.1v-0.1v-0.1V51v-0.1v-0.1v-0.1v-0.1v-0.1l0,0v-0.1v-0.1v-0.1v-0.1l0,0V50v-0.1v-0.1v-0.1l0,0v-0.1v-0.1
			v-0.1v-0.1l0,0v-0.1v-0.1V49v-0.1v-0.1v-0.1v-0.1v-0.1v-0.1v-0.1v-0.1v-0.1l0,0V48l0,0v-0.1v-0.1v-0.1v-0.1v-0.1v-0.1l0,0v-0.1
			v-0.1v-0.1l0,0l0,0V47v-0.1v-0.1l0,0l0,0v-0.1v-0.1v-0.1l0,0l0,0v-0.1v-0.1v-0.1l0,0v-0.1l0,0l0,0l0,0l0,0l0,0l0,0l0,0l0,0l0,0
			l0,0l0,0l0,0l0,0l0,0l0,0l0,0l0,0l0,0l0,0l0,0l0,0l0,0l0,0l0,0l0,0l0,0l0,0l0,0l0,0l0,0l0,0l0,0l0,0l0,0l0,0l0,0l0,0l0,0l0,0l0,0
			l0,0l0,0l0,0l0,0l0,0l0,0l0,0l0,0l0,0l0,0l0,0l0,0l0,0l0,0l0,0l0,0l0,0l0,0l0,0l0,0l0,0l0,0l0,0l0,0l0,0l0,0l0,0l0,0l0,0l0,0l0,0
			l0,0l0,0l0,0l0,0l0,0l0,0l0,0l0,0l0,0l0,0l0,0l0,0l0,0l0,0l0,0l0,0l0,0l0,0l0,0l0,0l0,0l0,0l0,0l0,0l0,0l0,0l0,0l0,0l0,0l0,0l0,0
			l0,0l0,0l0,0l0,0l0,0l0,0l0,0l0,0l0,0l0,0l0,0l0,0l0,0l0,0l0,0l0,0l0,0l0,0l0,0l0,0l0,0l0,0l0,0l0,0l0,0l0,0l0,0l0,0l0,0l0,0l0,0
			l0,0l0,0l0,0l0,0l0,0l0,0l0,0l0,0l0,0l0,0l0,0l0,0l0,0l0,0l0,0l0,0l0,0l0,0l0,0l0,0l0,0l0,0l0,0l0,0l0,0l0,0l0,0l0,0l0,0l0,0l0,0
			l0,0l0,0l0,0l0,0l0,0l0,0l0,0l0,0l0,0l0,0l0,0l0,0l0,0l0,0l0,0l0,0l0,0l0,0l0,0l0,0l0,0l0,0l0,0l0,0l0,0l0,0l0,0l0,0l0,0l0,0l0,0
			l0,0l0,0l0,0l0,0l0,0l0,0l0,0l0,0l0,0l0,0l0,0l0,0l0,0l0,0l0,0l0,0l0,0l0,0l0,0l0,0l0,0l0,0l0,0l0,0l0,0l0,0l0,0l0,0l0,0l0,0l0,0
			l0,0l0,0l0,0l0,0l0,0l0,0l0,0l0,0l0,0l0,0l0,0l0,0l0,0l0,0l0,0l0,0l0,0l0,0l0,0l0,0l0,0l0,0l0,0l0,0l0,0l0,0l0,0l0,0l0,0l0,0V46
			l0,0l0,0l0,0l0,0l0,0l0,0l0,0l0,0l0,0l0,0l0,0l0,0l0,0l0,0l0,0l0,0l0,0l0,0l0,0l0,0l0,0l0,0l0,0l0,0l0,0l0,0l0,0l0,0l0,0l0,0l0,0
			l0,0l0,0l0,0v-0.1l0,0l0,0l0,0l0,0l0,0l0,0l0,0l0,0l0,0l0,0l0,0l0,0l0,0l0,0l0,0l0,0l0,0l0,0l0,0c-0.1-0.9-0.2-1.7-0.4-2.4
			c-0.4-1.6-1-2.4-1.8-2.4c-0.7,0-1.4,0.8-2,2.4s-1.1,3.4-1.5,5.6c-0.1,0.5-0.3,2.7-0.7,5.7l0,0l0,0l0,0l0,0l0,0l0,0l0,0l0,0l0,0
			l0,0l0,0l0,0l0,0l0,0l0,0l0,0l0,0l0,0l0,0l0,0l0,0l0,0l0,0l0,0l0,0l0,0l0,0l0,0l0,0l0,0l0,0l0,0l0,0l0,0l0,0l0,0l0,0l0,0l0,0l0,0
			l0,0l0,0l0,0l0,0l0,0l0,0l0,0l0,0l0,0l0,0l0,0l0,0l0,0l0,0l0,0l0,0l0,0l0,0l0,0l0,0l0,0l0,0l0,0l0,0l0,0
			c-0.7,6.4-1.6,15.1-1.8,16.8c-0.2,2.7-0.3,4.8-0.3,6.5c0,2.4,0.2,4.5,0.6,6.3C11.4,83.7,12,84.6,12.8,84.6z M23.2,84.2L22.6,90
			c-0.2,1.8-0.3,2.8-0.3,3.1c0,0.7,0.1,1.2,0.3,1.5c0.3,0.4,0.6,0.7,1,0.7c0.3,0.1,0.5,0.4,0.5,0.9c0,0.7-0.2,1-0.5,1
			c-0.2,0-0.6-0.1-1-0.1c-0.5-0.1-0.8-0.1-1-0.1c-0.4,0-0.8,0-1.4,0.1c-0.6,0-1.2,0.1-2,0.2c-0.3,0-0.4-0.3-0.4-0.8
			c0-0.7,0.2-1.1,0.5-1.1c0.7-0.3,1.1-0.7,1.3-1.4c0.2-0.7,0.4-2,0.6-4l2.3-22.5c-0.1,0-0.3,0.3-0.7,0.9C21.4,68.7,21.1,69,21,69
			s-0.2-0.3-0.2-0.8c0-1,0.4-2,1.3-2.9c0.3-0.3,0.5-0.5,0.5-0.9c0.1-0.3,0.1-0.9,0.2-1.8l0.3-3.1c0.1-0.7,0.1-1.2,0.2-1.5
			c0.1-0.3,0.4-0.5,1-0.6l0.8-0.3h0.5c0.1,0,0.2,0.1,0.2,0.4c0,0.1,0,0.5-0.1,1.1L25.4,63c1.1-0.6,2-0.9,2.5-0.9
			c0.9,0,1.6,0.6,2.2,1.9c0.5,1.3,0.8,3.1,0.8,5.7c0,4.1-0.5,7.8-1.5,11.2c-1,3.6-2.4,5.4-3.9,5.4C24.5,86.3,23.7,85.6,23.2,84.2z
			 M25.2,64.9l-1.4,13.5c-0.2,1.5-0.3,2.6-0.3,3.1c0,1.8,0.4,2.8,1.1,2.8c0.9,0,1.6-1.7,2.2-5.1c0.7-3.7,1-7.1,1-10.3
			c0-1.7-0.1-2.9-0.5-3.5c-0.3-0.7-0.7-1-1.1-1C26,64.4,25.7,64.5,25.2,64.9z M39.3,68.6c-0.3,2.2-1.2,4.8-2.8,7.8
			c-0.6,1.2-1,2.2-1.3,2.8c-0.3,0.7-0.5,1.5-0.6,2.6c-0.1,0.7,0,1.3,0.1,1.8s0.3,0.8,0.6,0.8c0.5,0,0.9-0.2,1.2-0.7
			c0.3-0.4,0.7-1,0.9-1.7c0.3-0.7,0.4-1,0.5-1.1s0.1-0.1,0.2,0c0.1,0.1,0.1,0.2,0,0.4c-0.3,1.3-0.6,2.4-1,3.5c-0.5,1-1,1.6-1.8,1.6
			c-0.9,0-1.6-0.7-2.3-2.1s-0.8-3.3-0.6-5.8c0.2-1.3,0.5-2.5,0.8-3.5c0.4-1,1-2.2,1.7-3.6s1.2-2.5,1.5-3.1c0.3-0.7,0.5-1.4,0.5-2.4
			c0.1-0.6,0.1-1.1,0-1.6c-0.1-0.4-0.2-0.7-0.4-0.7c-0.5,0-0.8,0.2-1.2,0.7c-0.3,0.4-0.7,1-1,1.8c-0.4,0.8-0.6,1.2-0.7,1.4
			c-0.1,0.1-0.1,0.1-0.2,0c-0.1-0.1-0.1-0.2-0.1-0.3c0.2-0.9,0.5-1.9,1.1-3.2c0.6-1.3,1.2-2,1.8-2c1,0,1.7,0.5,2.3,1.6
			C39.4,65,39.6,66.6,39.3,68.6z M48.9,62.1h0.7c0.1,0,0.2-0.1,0.3-0.1s0.2,0.1,0.3,0.2s0.1,0.3,0.1,0.5c0,0.3-0.1,1-0.2,2.2
			c-0.1,1.2-0.3,2.5-0.4,4c-0.2,1.5-0.3,2.7-0.5,3.8l-0.3,4c-0.2,1.9-0.3,3.1-0.3,3.7c0,0.7,0.1,1,0.2,1c0.2,0,0.3-0.3,0.5-0.8
			s0.4-1.2,0.6-2c0.2-0.9,0.4-1.3,0.5-1.3s0.2,0.2,0.2,0.7c0,0.9-0.3,2.2-0.9,4c-1,2.9-1.9,4.3-2.8,4.3c-0.6,0-0.9-0.8-0.9-2.5
			c0-0.8,0.1-2.2,0.3-4.4c0.2-2.1,0.3-3.4,0.3-4c-0.8,3.2-1.5,5.8-2.3,7.8c-0.7,2-1.5,3-2.4,3c-0.5,0-0.9-0.6-1.2-1.8
			c-0.3-1.2-0.4-2.7-0.4-4.4c0-4.3,0.7-8.3,2-12c0.6-1.6,1.2-2.9,2-4c0.7-1.1,1.4-1.6,2.1-1.6c0.5,0,0.8,0.3,1.1,0.8
			c0.1,0.1,0.1,0.1,0.2,0.1c0.1,0,0.1-0.1,0.1-0.3c0.1-0.5,0.2-0.7,0.3-0.9c0.1-0.1,0.3-0.2,0.4-0.2C48.6,61.9,48.7,62.1,48.9,62.1z
			 M43.5,81.7c0.4,0,0.9-1,1.5-3s1.1-4.3,1.6-6.9s0.7-4.5,0.7-5.6c0-0.5-0.1-1-0.2-1.5c-0.1-0.4-0.3-0.6-0.5-0.6c-0.5,0-1,0.7-1.4,2
			s-0.8,3-1.2,4.9c-0.7,3.3-1,6.2-1,8.5C43,81,43.2,81.7,43.5,81.7z M58.1,74.3h-2.9c-0.1,0.9-0.2,1.8-0.3,2.7
			c-0.1,0.9-0.3,2.8-0.6,5.8c-0.1,1.4-0.3,2.3-0.3,2.5c-0.1,0.2-0.3,0.3-0.8,0.3h-0.6c-0.1,0-0.2,0-0.4,0c-0.1,0-0.3,0-0.4-0.1
			c-0.1-0.1-0.2-0.3-0.2-0.6s0-0.8,0.1-1.6l1.1-11c0.3-3,0.5-4.9,0.5-5.8c0-0.4,0-0.6-0.1-0.6s-0.4,0.7-0.9,2s-0.7,2-0.8,2
			s-0.2-0.3-0.2-0.7c0-0.6,0.3-1.7,0.9-3.3c0.9-2.6,1.8-3.9,2.6-3.9c0.6,0,1,0.9,1,2.6c0,1-0.1,2.7-0.3,5.1l-0.3,2.7h2.9
			c0.1-0.8,0.2-1.7,0.3-2.8c0.1-1.1,0.3-2.9,0.5-5.4c0.1-0.7,0.1-1.1,0.3-1.3c0.1-0.2,0.5-0.3,1.2-0.3h0.8c0.2,0,0.3,0.1,0.3,0.5
			c0,0.1,0,0.3,0,0.4s0,0.2,0,0.3L60.4,76c-0.3,3.5-0.5,5.3-0.5,5.4c0,0.3,0.1,0.5,0.2,0.5c0.2,0,0.5-0.7,0.9-2c0.4-1.4,0.7-2,0.8-2
			s0.2,0.2,0.2,0.6c0,0.5-0.1,1.2-0.4,2c-0.3,0.9-0.5,1.6-0.7,2.2c-0.9,2.4-1.7,3.7-2.5,3.7c-0.7,0-1-0.9-1-2.6c0-1.4,0.1-3.4,0.4-6
			L58.1,74.3z M68.9,75.2l-0.2,0.7c-0.8,2.9-1.4,5-2,6.4c-1,2.7-2,4.1-2.7,4.1c-0.4,0-0.7-0.4-0.9-1.2s-0.3-1.7-0.3-2.7
			c0-1.2,0.1-2.5,0.3-3.9l1.4-10.5c0.1-0.9,0.2-1.4,0.2-1.6c0-0.4-0.1-0.7-0.2-0.7c-0.3,0-0.6,0.7-1,2s-0.7,2-0.8,2
			s-0.2-0.2-0.2-0.7c0-0.4,0.1-1,0.4-1.9c0.3-0.9,0.5-1.5,0.6-1.8c0.9-2.2,1.8-3.3,2.7-3.3c0.8,0,1.2,1,1.2,3.1c0,1-0.1,2.2-0.3,3.8
			l-1.2,9.1c-0.2,1.5-0.3,2.3-0.3,2.5c0,0.6,0.1,0.9,0.3,0.9c0.3,0,0.7-0.8,1.2-2.4c0.6-1.6,1-3.1,1.4-4.6c0.7-2.8,1.2-6.2,1.6-10.3
			c0.1-0.7,0.1-1.1,0.3-1.3c0.2-0.2,0.5-0.3,1.2-0.3h0.8c0.2,0,0.3,0.1,0.3,0.5c0,0.1,0,0.3,0,0.4s0,0.2-0.1,0.3L71.2,76
			c-0.4,3.5-0.5,5.3-0.5,5.4c0,0.3,0.1,0.5,0.2,0.5c0.2,0,0.5-0.7,0.9-2c0.4-1.4,0.7-2,0.7-2c0.1,0,0.2,0.2,0.2,0.6
			c0,0.5-0.1,1.2-0.4,2c-0.3,0.8-0.5,1.6-0.7,2.2c-0.9,2.4-1.7,3.7-2.5,3.7c-0.7,0-1-0.9-1-2.6c0-1.5,0.1-3.5,0.4-6L68.9,75.2z
			 M81.7,83.9c0.3,0,0.5-0.4,0.7-1.1s0.3-1.6,0.3-2.7c0-0.7,0.1-1,0.3-1c0.1,0,0.2,0.3,0.2,1.1c0,2.2-0.2,3.7-0.7,4.6
			s-1.1,1.4-1.9,1.4c-1.3,0-2.2-2.1-2.8-6.2c-0.1-1-0.2-2-0.3-2.9s-0.2-1.5-0.3-1.9c-0.1,0.7-0.2,1.9-0.4,3.5s-0.3,2.9-0.4,3.9
			c-0.1,1.4-0.3,2.3-0.3,2.5c-0.1,0.2-0.3,0.3-0.8,0.3h-0.6c-0.1,0-0.2,0-0.4,0c-0.1,0-0.3,0-0.4-0.1c-0.1-0.1-0.2-0.3-0.2-0.6
			c0-0.3,0.1-0.8,0.2-1.6l1.1-11c0.3-3,0.5-4.9,0.5-5.8c0-0.4,0-0.6-0.1-0.6s-0.4,0.7-0.8,2c-0.5,1.3-0.7,2-0.8,2s-0.2-0.3-0.2-0.7
			c0-0.6,0.3-1.7,0.9-3.3c0.9-2.6,1.8-3.9,2.6-3.9c0.6,0,1,0.9,1,2.6c0,0.7-0.1,1.8-0.2,3.5c-0.1,1.7-0.3,3.1-0.3,4.2
			c0.7-2.9,1.4-5.3,2.3-7.3c0.8-2,1.6-3,2.2-3c0.3,0,0.6,0.3,0.8,0.9s0.3,1.3,0.3,2.2c0,1.2-0.1,2.3-0.4,3.3c-0.3,1-0.6,1.6-1,1.6
			c-0.5,0-0.8-1-0.8-2.9c-0.1-0.5-0.1-0.8-0.2-0.8c-0.2,0-0.6,0.8-1.2,2.5c-0.6,1.6-1,3.1-1.2,4.3c0.6,0.2,1.1,1.5,1.6,3.8
			c0.2,0.7,0.3,1.5,0.5,2.4s0.3,1.6,0.4,2c0.2,0.8,0.3,1.5,0.4,1.9C81.3,83.7,81.5,83.9,81.7,83.9z M87.7,76.1h-3.1
			c0,0-0.1,0-0.2,0.1c-0.1,0-0.2,0-0.2-0.2c0-0.1,0-0.2,0-0.2c0-0.1,0-0.1,0-0.2l0.2-1.6c0-0.6,0.1-1.3,0.2-2c0-0.1,0.1-0.2,0.2-0.2
			h0.3h3.4l0,0c0.1,0.1,0.1,0.1,0.1,0.2v0.2l-0.2,1.6c-0.1,0.9-0.1,1.4-0.2,1.7c0,0.3-0.1,0.4-0.1,0.5
			C88.1,76.1,87.9,76.1,87.7,76.1z M98.2,50.7L95.1,79c-0.1,1.2-0.2,2.2-0.2,2.9s0.1,1.1,0.2,1.3c0.1,0.2,0.3,0.4,0.5,0.5
			c0.4,0.1,0.6,0.4,0.6,1.1s-0.2,1.1-0.6,1.1c-0.4-0.1-0.9-0.1-1.3-0.2c-0.5-0.1-0.9-0.1-1.1-0.1c-0.3,0-0.6,0-1,0.1
			s-0.9,0.1-1.4,0.2c-0.3,0-0.4-0.3-0.4-0.9s0.2-1,0.6-1.2c0.3-0.2,0.5-0.3,0.6-0.4s0.2-0.3,0.3-0.8s0.3-1.7,0.5-3.6L95,53.8
			c0.2-1.7,0.3-2.8,0.3-3.1c0-1.1-0.2-1.7-0.6-1.8c-0.3-0.1-0.5-0.4-0.5-1c0-0.8,0.1-1.2,0.4-1.2c0.2,0,0.4,0,0.7,0.1
			c0.3,0.1,0.6,0.1,0.8,0.1c0.2,0,0.5,0,0.9,0c0.9,0,1.6,0,2.2,0c0.6-0.1,2.4-0.1,3.2-0.1c0.8-0.1,1.4-0.1,1.9-0.1
			c0.2,0,0.3,0.2,0.3,0.6c0,0.1,0,0.5-0.1,1.1s-0.1,1.3-0.2,1.9c-0.1,0.7-0.1,1.1-0.1,1.2c-0.1,1.3-0.2,2.2-0.3,2.8
			c-0.1,0.3-0.2,0.5-0.3,0.5c-0.1,0-0.2-0.1-0.2-0.2s-0.1-0.5-0.1-1.2c-0.1-1.8-0.3-3-0.6-3.6c-0.3-0.5-1.8-0.7-2.6-0.7h-0.7
			c-0.3,0-0.5,0.1-0.6,0.2C98.4,49.4,98.3,49.8,98.2,50.7z M105.9,86.3c-1.1,0-2-0.8-2.7-2.4c-0.9-1.9-1.3-4.4-1.3-7.5
			c0-2.7,0.3-5.1,0.8-7.3c0.6-2.2,1.3-3.9,2.2-5.2c0.9-1.2,1.8-1.9,2.7-1.9c0.7,0,1.4,0.4,2,1.3c0.6,0.8,1.1,2,1.5,3.6
			s0.6,3.4,0.6,5.6c0,2.7-0.3,5.1-0.9,7.2s-1.3,3.7-2.2,4.9S106.9,86.3,105.9,86.3z M105.9,84.8c0.9,0,1.7-2,2.3-6
			c0.7-4,1-7.5,1-10.4c0-3.1-0.4-4.6-1.2-4.6c-0.9,0-1.8,2.2-2.4,6.6c-0.5,3.3-0.8,6.4-0.8,9.3C104.7,83.1,105.1,84.8,105.9,84.8z
			 M115.6,84.3c-0.3,1.3-1,2-1.9,2c-0.4,0-0.8-0.3-1.1-0.8c-0.3-0.5-0.5-1.3-0.5-2.4c0-1.2,0.1-2.2,0.4-3.1s0.6-1.3,1-1.2
			c0.4,0,0.7,0.3,0.9,0.9c0.2,0.6,0.2,1.2,0.1,1.9c-0.3,1.3-0.3,1.9-0.1,1.9c0.3,0,0.5-0.3,0.7-0.9s0.4-1.4,0.6-2.3l3.3-14.6
			c0.2-0.9,0.5-1.6,0.8-2.1c0.3-0.6,0.6-1,0.9-1.2s0.5-0.3,0.6-0.3c0.4,0,0.8,0.3,1,0.7c0.3,0.5,0.4,1.2,0.4,2.4
			c0,1.3-0.2,3.2-0.5,5.8l-1,7.9c-0.2,1.5-0.3,2.4-0.3,2.7c0,0.5,0.1,0.7,0.2,0.7c0.2,0,0.5-0.7,0.9-2.2s0.6-2.2,0.7-2.2
			s0.2,0.2,0.2,0.6c0,0.9-0.3,2.4-1,4.5c-0.8,2.3-1.6,3.4-2.4,3.4s-1.2-1-1.2-3.1c0-0.9,0-1.7,0.1-2.6s0.2-1.8,0.3-2.9
			c0.1-1,0.2-2,0.3-2.9c0.7-5.1,1-7.9,1-8.6c0-0.3-0.1-0.3-0.3-0.2c-0.2,0.1-0.3,0.6-0.5,1.3L115.6,84.3z M128.4,84.8
			c0.9,0,1.6-2,2.3-6c0.7-4,1-7.5,1-10.4c0-3.1-0.4-4.6-1.2-4.6c-0.9,0-1.8,2.2-2.4,6.6c-0.5,3.3-0.8,6.4-0.8,9.3
			C127.2,83.1,127.6,84.8,128.4,84.8z M130.1,62.1c0.7,0,1.2,0.2,1.6,0.7s0.8,1.1,1.2,2c0-2-0.1-3.9-0.3-5.6
			c-1-9-7.3-12.4-12.9-14.3c-0.5-0.2-1.1-0.2-1.5-0.3c-0.2-0.1-1.7-0.3-3.2-0.6c-1.6-0.3-2.9-0.4-2.7-0.8c1.6-2.3,5.2-3.5,9.9-1.2
			c1.6,0.8,11.3,5.1,12.2,16.8c0.2,2.2,0.3,5.7,0.3,9.9c0,3.1-0.3,6.3-1,9.4c-0.5,2.3-1.1,4.3-2,5.8s-2,2.3-3.2,2.3
			c-1.1,0-2-0.8-2.7-2.4c-0.9-1.9-1.3-4.4-1.3-7.5c0-2.7,0.3-5.1,0.8-7.3c0.6-2.2,1.3-4,2.2-5.2C128.3,62.7,129.2,62.1,130.1,62.1z"
			/>
		<path class="st6" d="M20.6,40.6c0.2,0.8,0.4,1.5,0.6,2.3c-0.7,0.5-1.4,0.9-2,1.4l0,0l0,0l0,0l0,0l0,0l0,0l0,0l0,0l0,0l0,0l0,0l0,0
			l0,0l0,0l0,0l0,0l0,0l0,0l0,0l0,0l0,0l0,0l0,0l0,0l0,0l0,0l0,0l0,0l0,0l0,0l0,0l0,0l0,0l0,0l0,0l0,0l0,0l0,0l0,0l0,0l0,0l0,0l0,0
			l0,0l0,0l0,0l0,0l0,0l0,0l0,0l0,0l0,0l0,0l0,0l0,0l0,0l0,0l0,0l0,0l0,0l0,0l0,0l0,0l0,0l0,0l0,0l0,0l0,0l0,0l0,0l0,0l0,0l0,0l0,0
			l0,0l0,0l0,0l0,0l0,0l0,0l0,0l0,0l0,0l0,0l0,0l0,0l0,0l0,0l0,0l0,0l0,0l0,0l0,0l0,0l0,0l0,0l0,0l0,0l0,0l0,0l0,0l0,0l0,0l0,0l0,0
			l0,0l0,0l0,0l0,0l0,0l0,0l0,0l0,0l0,0l0,0l0,0l0,0l0,0l0,0l0,0l0,0l0,0l0,0l0,0l0,0l0,0l0,0l0,0l0,0l0,0l0,0l0,0l0,0l0,0l0,0l0,0
			l0,0l0,0l0,0l0,0l0,0l0,0l0,0l0,0l0,0l0,0l0,0l0,0l0,0l0,0l0,0l0,0l0,0l0,0l0,0l0,0l0,0l0,0l0,0l0,0l0,0l0,0l0,0l0,0l0,0l0,0l0,0
			l0,0l0,0l0,0l0,0l0,0l0,0C19.5,41.8,20.1,41.2,20.6,40.6z M94.1,61.2c1,0.2,1.9,0.5,2.9,0.6l1.2-11.1c0.1-0.9,0.2-1.4,0.3-1.5
			c0.1-0.1,0.3-0.2,0.6-0.2h0.7c0.7,0,2.3,0.2,2.6,0.7c0.3,0.6,0.5,1.8,0.6,3.6c0,0.6,0.1,1,0.1,1.2c0,0.1,0.1,0.2,0.2,0.2
			s0.3-0.2,0.3-0.5c0.1-0.6,0.3-1.5,0.3-2.8c0-0.1,0.1-0.5,0.1-1.2c0.1-0.6,0.2-1.3,0.2-1.9c0.1-0.6,0.1-1,0.1-1.1
			c0-0.4-0.1-0.6-0.3-0.6c-0.5,0-1.1,0-1.9,0.1s-2.6,0.1-3.2,0.1s-1.3,0-2.2,0c-0.3,0-0.6,0-0.9,0c-0.2-0.1-0.5-0.1-0.8-0.1
			c-0.3-0.1-0.6-0.1-0.7-0.1c-0.3,0-0.4,0.4-0.4,1.2c0,0.6,0.2,0.9,0.5,1c0.4,0.1,0.6,0.7,0.6,1.8c0,0.3-0.1,1.4-0.3,3.1L94.1,61.2z
			 M106.7,62.3c0.5-0.1,1-0.1,1.6-0.2c-0.2-0.1-0.4-0.1-0.6-0.1C107.3,62.1,107,62.2,106.7,62.3z M129.8,51.7
			c0.5-0.5,1.1-1.1,1.6-1.7c-1.3-2.1-2.9-3.7-4.5-4.8c-0.5-0.4-0.8-0.6-1.2-0.9c-1.6-1.1-3-1.8-3.5-2c-4.7-2.3-8.3-1.1-9.9,1.2
			c-0.3,0.4,1.1,0.5,2.7,0.8c1.5,0.3,2.9,0.5,3.2,0.6c0.4,0.1,0.9,0.1,1.5,0.3C123.3,46.2,127.2,48.1,129.8,51.7z"/>
		<path class="st2" d="M19.1,41.3L19,41.8v0.5l0.1,0.7l0.1,1v0.6h1c0.1-0.1,0.1-0.1,0.2-0.2l0.6-0.7l0.1-0.5v-0.1l0.1-0.1l-0.1-0.6
			L21,41.9l-0.2-0.7l-0.1-0.5l-0.1-0.5h-1L19.1,41.3z"/>
	</g>
</g>
</svg>
